<?xml version="1.0" standalone="no"?>
<!DOCTYPE svg PUBLIC "-//W3C//DTD SVG 20010904//EN"
 "http://www.w3.org/TR/2001/REC-SVG-20010904/DTD/svg10.dtd">
<svg version="1.0" xmlns="http://www.w3.org/2000/svg"
 width="128.000000pt" height="128.000000pt" viewBox="0 0 128.000000 128.000000"
 preserveAspectRatio="xMidYMid meet">

<g transform="translate(0.000000,128.000000) scale(0.100000,-0.100000)"
fill="#000000" stroke="none">
<path d="M75 1253 c21 -49 17 -80 -18 -131 -46 -68 -52 -94 -28 -140 26 -51
36 -119 21 -137 -9 -11 -16 -12 -25 -5 -18 15 -29 -20 -20 -60 7 -34 35 -63
35 -36 0 21 23 20 43 -2 23 -26 47 -98 47 -143 0 -33 -3 -39 -21 -39 -13 0
-23 8 -26 20 -7 27 -27 20 -31 -9 -6 -41 8 -72 44 -93 20 -12 43 -38 54 -61
25 -50 25 -51 0 -44 -16 4 -20 0 -20 -20 0 -38 17 -61 60 -83 50 -25 78 -65
63 -89 -23 -37 35 -101 92 -101 41 0 85 33 78 59 -6 22 21 51 47 51 22 0 39
-22 22 -28 -17 -5 -15 -48 4 -66 17 -18 54 -22 54 -6 0 22 25 8 63 -35 35 -39
46 -45 79 -45 34 0 46 7 103 66 36 37 65 73 65 81 0 8 -7 27 -16 42 -15 25
-15 30 0 59 21 41 20 75 -2 95 -23 21 -33 22 -26 3 8 -20 -14 -30 -31 -16 -34
29 -1 101 52 115 71 17 89 52 52 99 -18 23 -20 31 -9 56 7 16 10 40 6 53 -7
28 -50 77 -68 77 -9 0 -9 -3 0 -12 17 -17 15 -75 -3 -82 -8 -3 -23 3 -32 13
-10 10 -37 28 -60 40 -51 26 -64 59 -39 102 20 34 13 73 -17 94 -31 22 -37 19
-24 -15 10 -25 8 -34 -11 -59 -26 -36 -27 -49 -6 -79 8 -12 11 -22 5 -22 -14
0 -31 34 -31 60 0 12 -14 35 -30 50 -17 15 -30 37 -30 49 0 11 -15 31 -35 47
-38 29 -44 57 -19 85 15 17 14 17 -11 11 -20 -6 -31 -18 -41 -47 -20 -58 -17
-81 12 -100 20 -13 23 -19 13 -31 -19 -23 -33 -17 -98 38 -67 56 -75 83 -33
104 26 13 24 15 -32 44 -42 22 -53 43 -39 80 10 27 10 29 -7 20 -28 -15 -35
-31 -35 -75 0 -37 -2 -40 -31 -43 -62 -6 -88 66 -45 125 18 23 21 38 16 61 -7
35 -18 46 -59 62 -25 9 -27 8 -21 -7z"/>
</g>
</svg>
